<?xml version="1.0" encoding="UTF-8"?>
<svg id="Layer_2" data-name="Layer 2" xmlns="http://www.w3.org/2000/svg" viewBox="0 0 481.82 148.6">
  <defs>
    <style>
      .cls-1 {
        stroke-width: 0px;
      }
    </style>
  </defs>
  <g id="_2_logo_main" data-name="2 logo main">
    <g id="logo">
      <path class="cls-1" d="m95.65,145.95c-15.42.24-31.05,2.75-36.76-17.26-2.37,3.44-4.15,6.34-6.25,9.01-7.44,9.49-18.7,12.94-30.85,9.6-11.51-3.16-19.78-12.73-21.3-24.36-2.04-15.57,2.29-29.57,12.42-41.03,8.96-10.13,19.38-19,29.51-28.03,2.82-2.51,3.7-4.48,2.54-7.99-1.93-5.81-4.72-10.77-11.18-12.17-7.39-1.6-13.18,3.93-14.44,13.38-.3,2.29-.51,4.61-1.08,6.84-1.12,4.41-4.19,6.12-8.61,5.64-4.11-.45-6.15-2.87-6.56-6.85-.61-5.91,1.63-10.68,5.81-14.7,5.71-5.49,12.7-8.72,20.37-9.66,15.74-1.91,31.07-1.2,42.7,11.8,7.75,8.66,9.01,19.64,10.24,30.55,2.31,20.56,4.4,41.15,7.11,61.65.5,3.76,3.46,7.2,5.26,10.8.34.67.55,1.41,1.07,2.77ZM47.22,57.41c-.83.15-1.23.11-1.43.29-.37.31-.66.73-.92,1.16-9.02,15.17-13.52,31.66-13.12,49.22.13,5.62,1.74,11.45,3.87,16.7,2.24,5.53,8.26,7.3,13.95,5.36,5.91-2.01,8.14-6.11,7.07-12.67-1.09-6.69-2.03-13.4-3.08-20.09-2.09-13.32-4.21-26.63-6.33-39.98Z"/>
      <path class="cls-1" d="m230.19,73.56h-55.25c.98,11.51,3.55,21.89,9.35,31.36,3.83,6.25,8.87,11.28,15.9,13.75,8.79,3.09,17.27,3.09,24.63-3.75.68-.63,1.55-1.07,2.69-1.84.32.95.78,1.56.66,2.04-3.17,13.93-8.4,26.94-23.36,31.57-15,4.65-28.67.75-39.54-10.87-9.87-10.55-13.82-23.76-14.84-37.69-1.18-16.14-.45-32.21,7.31-47.06,5.58-10.68,13.19-19.1,25.35-22.33,19.05-5.05,37.11,4.27,43.22,23.01,2.16,6.64,2.52,13.86,3.87,21.81Zm-55.88-4.34c5.86-.71,10.82-1,15.63-1.98,4.87-.99,8.21-4.23,9.8-8.96,1.97-5.86,1.7-11.77-.7-17.43-1.66-3.92-4.18-7.15-9.03-7.44-4.74-.28-7.83,2.2-10.05,5.99-5.22,8.91-5.44,18.74-5.65,29.81Z"/>
      <path class="cls-1" d="m149.69,145.86h-50.13c-.15-.54-.41-1.02-.3-1.13,5.98-5.94,6.01-13.55,6.01-21.18,0-22.06.15-44.12-.09-66.18-.08-7.19.15-14.68-5.33-20.67-.48-.52.39-3.48,1.05-3.64,17.09-4.27,26.99-16.01,33.39-31.51.12-.29.34-.58.59-.77.25-.19.59-.26,1.83-.77v33.46c3.7,0,6.48-.01,9.26,0q5.9.03,5.14,7.26c-2.12,0-4.35,0-6.58,0s-4.56,0-7.1,0c-.13,2.05-.3,3.5-.3,4.95,0,25.88-.04,51.75.07,77.63.01,3.11.55,6.27,1.26,9.31,1.09,4.63,4.02,7.87,8.42,9.82,1.27.57,2.36,1.55,3.53,2.34-.24.37-.48.73-.73,1.1Z"/>
      <path class="cls-1" d="m413.28,145.63c8.56-7.26,7.28-16.33,7.33-24.95.13-20.73.12-41.47,0-62.2-.05-8.06.39-16.38-6.12-22.79-.26-.25-.09-.94-.16-2.18,12.21-1.62,24.41-3.24,37.41-4.97v17.68c.4.08.79.16,1.19.24,1.31-2.53,2.48-5.15,3.97-7.58,3.52-5.74,7.95-10.24,15.38-10.12,6.23.1,9.91,4.02,9.51,10.12-.39,5.89-4.31,8.78-10.84,7.59-3.81-.69-7.57-3.27-11.24.2-4.43,4.19-7,9.53-7.08,15.43-.26,21.06-.27,42.13.03,63.2.11,7.8,2.65,14.75,11.04,17.79.77.28,1.31,1.18,2.74,2.53h-53.17Z"/>
      <path class="cls-1" d="m327.35,145.89h-45.2c-.08-.64-.35-1.33-.15-1.49,5.74-4.59,5.87-10.95,5.91-17.17.13-21.58.18-33.74-.02-55.33-.07-6.95.17-9.48-5.79-15.01-.35-.33-.18-1.16-.33-2.39,12.54-1.05,24.85-2.08,38.05-3.18v5.76c0,25.34-.16,36.54.09,61.88.09,9.06-2.8,18.89,7.45,26.95Z"/>
      <path class="cls-1" d="m286.24,25.27c.05-9.56,7.08-16.39,16.88-16.38,9.51,0,16.8,7.2,16.82,16.62.03,9.51-7.01,16.39-16.81,16.44-10.2.05-16.94-6.61-16.89-16.68Z"/>
      <path class="cls-1" d="m410.2,73.54h-55.25c.98,11.51,3.55,21.89,9.35,31.36,3.83,6.25,8.87,11.28,15.9,13.75,8.79,3.09,17.27,3.09,24.63-3.75.68-.63,1.55-1.07,2.69-1.84.32.95.78,1.56.66,2.04-3.17,13.93-8.4,26.94-23.36,31.57-15,4.65-28.67.75-39.54-10.87-9.87-10.55-13.82-23.76-14.84-37.69-1.18-16.14-.45-32.21,7.31-47.06,5.58-10.68,13.19-19.1,25.35-22.33,19.05-5.05,37.11,4.27,43.22,23.01,2.16,6.64,2.52,13.86,3.87,21.81Zm-55.88-4.34c5.86-.71,10.82-1,15.63-1.98,4.87-.99,8.21-4.23,9.8-8.96,1.97-5.86,1.7-11.77-.7-17.43-1.66-3.92-4.18-7.15-9.03-7.44-4.74-.28-7.83,2.2-10.05,5.99-5.22,8.91-5.44,18.74-5.65,29.81Z"/>
      <path class="cls-1" d="m275.14,144.32c-16.32,0-30.72,0-45.2,0-.08-.95-.35-1.98-.15-2.22,5.74-6.82,5.87-16.29,5.91-25.54.13-32.1.18-50.18-.02-82.27-.07-10.33.17-14.09-5.79-22.33-.35-.49-.18-1.72-.33-3.55,12.54-1.56,24.85-3.09,38.05-4.73,0,3.24,0,5.9,0,8.56,0,37.68-.16,54.33.09,92.01.09,13.48-2.8,28.09,7.45,40.07Z"/>
    </g>
  </g>
</svg>